<?xml version="1.0" standalone="no"?>
<!DOCTYPE svg PUBLIC "-//W3C//DTD SVG 20010904//EN"
 "http://www.w3.org/TR/2001/REC-SVG-20010904/DTD/svg10.dtd">
<svg version="1.0" xmlns="http://www.w3.org/2000/svg"
 width="1280.000000pt" height="870.000000pt" viewBox="0 0 1280.000000 870.000000"
 preserveAspectRatio="xMidYMid meet">
<metadata>
Created by potrace 1.15, written by Peter Selinger 2001-2017
</metadata>
<g transform="translate(0.000000,870.000000) scale(0.100000,-0.100000)"
fill="#013a55" stroke="none">
<path d="M6178 8148 c-10 -7 -23 -29 -30 -49 -19 -55 -84 -122 -111 -115 -16
4 -31 -4 -54 -26 -18 -18 -33 -37 -33 -44 0 -6 -11 -19 -25 -28 -14 -9 -25
-23 -25 -31 0 -7 -12 -23 -27 -35 -15 -12 -37 -38 -50 -58 -39 -65 -93 -181
-93 -202 0 -6 -13 -23 -29 -38 -36 -32 -54 -100 -45 -166 5 -31 2 -51 -7 -62
-10 -12 -14 -68 -16 -217 -2 -127 -8 -210 -15 -224 -13 -26 -60 -31 -114 -11
-29 10 -36 8 -81 -21 l-50 -33 -6 -71 c-5 -70 -7 -75 -53 -103 -16 -10 -17
-14 -6 -39 11 -24 11 -27 -4 -21 -9 3 -28 9 -42 13 -15 3 -35 16 -44 28 -10
13 -29 25 -43 27 -21 4 -29 0 -40 -22 -16 -31 -53 -44 -117 -42 -29 2 -40 -3
-50 -21 -14 -27 -13 -98 3 -128 10 -20 15 -115 6 -149 -2 -8 -7 -31 -11 -50
-5 -19 -11 -39 -15 -45 -4 -5 -13 -28 -20 -50 -16 -48 -52 -105 -67 -105 -6 0
-19 -9 -30 -21 -15 -16 -19 -36 -19 -90 0 -38 -2 -69 -5 -69 -3 0 -6 -23 -7
-51 -1 -62 -20 -109 -42 -109 -10 0 -36 -16 -58 -35 -52 -45 -69 -94 -83 -245
-10 -104 -13 -118 -38 -143 -15 -16 -42 -35 -60 -42 -17 -8 -41 -30 -52 -48
-15 -26 -30 -37 -55 -41 -40 -8 -54 -29 -90 -136 -13 -37 -34 -85 -49 -108
-14 -23 -26 -47 -26 -54 0 -7 -9 -26 -20 -43 -11 -16 -20 -40 -20 -53 0 -34
-55 -137 -84 -155 -13 -9 -27 -25 -31 -36 -3 -11 -23 -30 -43 -42 -54 -33 -82
-66 -82 -98 0 -24 -12 -37 -76 -81 -41 -29 -78 -58 -81 -66 -3 -7 -12 -16 -22
-19 -9 -2 -21 -15 -26 -27 -9 -22 -52 -47 -225 -133 -36 -17 -87 -40 -115 -50
-27 -11 -74 -40 -102 -65 -44 -38 -66 -49 -128 -64 -64 -15 -82 -24 -120 -62
-25 -24 -50 -44 -54 -44 -5 0 -19 -17 -31 -37 -19 -32 -21 -43 -11 -68 7 -19
7 -33 1 -39 -6 -6 -10 -16 -10 -22 0 -29 -56 -105 -81 -110 -35 -8 -128 -90
-146 -128 -24 -51 -37 -71 -68 -104 -17 -18 -31 -45 -33 -64 -2 -18 -11 -44
-20 -58 -9 -14 -15 -37 -13 -52 1 -15 -4 -37 -13 -50 -17 -26 -44 -167 -48
-243 -1 -27 -8 -56 -15 -63 -14 -14 -9 -76 8 -97 4 -6 4 -26 0 -44 -6 -31 -12
-36 -51 -45 -43 -11 -44 -12 -48 -56 -2 -25 -4 -75 -3 -112 0 -65 -1 -68 -34
-94 -19 -14 -37 -36 -41 -47 -12 -41 -55 -87 -103 -111 -26 -14 -53 -31 -59
-39 -7 -8 -29 -18 -48 -22 -26 -4 -41 -15 -56 -41 -20 -33 -79 -71 -138 -89
-38 -11 -182 -97 -187 -112 -3 -7 -12 -13 -19 -13 -8 0 -17 -7 -20 -15 -7 -18
-57 -20 -84 -3 -14 9 -23 10 -28 3 -4 -6 -24 -22 -44 -38 -31 -22 -47 -27 -97
-27 -50 0 -61 -3 -61 -16 0 -15 -10 -16 -87 -9 -49 4 -104 7 -123 6 -66 -3
-142 -29 -174 -60 -29 -28 -38 -31 -95 -31 -35 0 -102 -5 -150 -11 -96 -13
-169 -3 -237 31 -49 25 -70 25 -147 -2 -34 -12 -84 -23 -112 -24 -27 -1 -105
-17 -173 -35 l-122 -33 0 -778 0 -778 6400 0 6400 0 0 1034 0 1034 -57 46
c-32 25 -71 52 -88 60 -16 8 -77 36 -135 63 -58 28 -154 80 -213 116 -59 37
-136 80 -170 95 -34 16 -108 61 -164 100 -119 85 -295 188 -462 271 -66 33
-218 121 -338 197 -120 75 -313 194 -428 264 -315 190 -338 207 -450 331 -59
67 -123 127 -157 149 -32 20 -100 77 -152 128 -52 51 -101 92 -108 92 -7 0
-19 9 -26 21 -7 11 -27 27 -45 35 -18 8 -48 24 -67 35 -30 18 -39 19 -72 10
-31 -10 -41 -20 -58 -58 l-21 -47 -19 31 c-10 17 -33 38 -50 46 -31 16 -32 16
-55 -11 -20 -22 -24 -24 -25 -9 0 11 -8 17 -25 17 -22 0 -44 22 -43 45 1 10
-12 18 -59 33 -18 6 -35 7 -37 3 -8 -13 -76 0 -76 15 0 8 -7 14 -15 14 -8 0
-15 6 -15 13 0 6 -12 -1 -25 -16 -25 -29 -45 -29 -45 0 0 9 -15 37 -34 63 -18
26 -37 58 -40 71 -16 53 -29 79 -41 79 -13 0 -67 76 -98 136 -11 21 -26 33
-47 38 -19 3 -30 11 -28 19 3 16 -76 87 -96 87 -21 0 -43 31 -74 103 -21 49
-37 72 -58 83 -40 21 -47 29 -50 60 -2 15 -12 36 -23 48 -23 24 -27 69 -11
111 5 14 11 72 13 128 2 56 8 111 14 122 19 35 5 100 -37 181 -23 43 -50 89
-61 102 -10 14 -19 32 -19 42 0 22 -26 74 -45 90 -8 7 -15 22 -15 33 0 11 -18
51 -40 89 -22 39 -40 72 -40 74 0 3 -9 14 -19 26 -11 11 -17 26 -15 33 3 7
-10 35 -28 62 -19 26 -40 63 -48 81 -7 19 -18 39 -24 45 -17 18 -76 136 -76
151 0 8 -14 29 -31 48 -50 54 -56 62 -63 85 -4 11 -17 28 -30 37 -19 12 -24
24 -23 52 1 31 -6 42 -45 77 -26 23 -50 53 -53 67 -4 14 -15 39 -25 55 -10 17
-20 44 -23 62 -7 43 -36 84 -119 168 -38 39 -77 78 -86 89 -9 10 -42 35 -72
56 -94 65 -280 281 -280 325 0 15 -79 95 -95 95 -5 0 -49 42 -97 93 -48 50
-93 97 -98 102 -6 6 -21 21 -33 34 -12 13 -68 70 -124 127 -87 88 -107 104
-133 104 -18 0 -43 9 -57 20 -14 11 -32 20 -40 20 -8 0 -28 9 -44 20 -15 12
-43 26 -61 32 -18 6 -43 20 -55 31 -12 11 -44 23 -70 28 -26 4 -61 11 -78 14
-18 4 -37 1 -47 -7z"/>
</g>
</svg>
