<?xml version="1.0" standalone="no"?>
<!DOCTYPE svg PUBLIC "-//W3C//DTD SVG 20010904//EN"
 "http://www.w3.org/TR/2001/REC-SVG-20010904/DTD/svg10.dtd">
<svg version="1.0" xmlns="http://www.w3.org/2000/svg"
 width="1280.000000pt" height="1280.000000pt" viewBox="0 0 1280.000000 1280.000000"
 preserveAspectRatio="xMidYMid meet">
<metadata>
Created by potrace 1.15, written by Peter Selinger 2001-2017
</metadata>
<g transform="translate(0.000000,1280.000000) scale(0.100000,-0.100000)"
fill="#ffeb3b" stroke="none">
<path d="M5822 10525 c0 -16 2 -22 5 -12 2 9 2 23 0 30 -3 6 -5 -1 -5 -18z"/>
<path d="M6952 10510 c0 -19 2 -27 5 -17 2 9 2 25 0 35 -3 9 -5 1 -5 -18z"/>
<path d="M5832 10455 c0 -16 2 -22 5 -12 2 9 2 23 0 30 -3 6 -5 -1 -5 -18z"/>
<path d="M6923 10344 c-12 -71 -20 -106 -18 -79 2 28 1 44 -2 38 -4 -10 -116
-13 -513 -13 l-509 0 -3 -27 c-2 -16 -10 15 -18 67 -8 52 -16 88 -18 79 -1 -9
15 -150 38 -315 76 -557 257 -1874 305 -2209 14 -99 25 -187 25 -196 0 -12
-21 -21 -82 -34 -45 -10 -113 -28 -150 -41 l-69 -23 -9 22 c-6 12 -126 303
-269 647 -460 1112 -794 1910 -797 1907 -2 -2 12 -44 31 -93 39 -99 41 -106
22 -80 -12 16 -16 17 -38 5 -13 -8 -26 -16 -29 -19 -3 -3 -16 -11 -29 -18 -13
-8 -38 -22 -55 -31 -17 -10 -77 -46 -134 -80 -56 -33 -107 -61 -112 -61 -6 0
-10 -4 -10 -10 0 -5 -4 -10 -10 -10 -5 0 -77 -40 -160 -90 -83 -49 -155 -90
-160 -90 -6 0 -10 -4 -10 -10 0 -5 -5 -10 -10 -10 -6 0 -38 -17 -73 -38 -34
-20 -67 -37 -73 -37 -6 0 -32 26 -58 58 -72 87 -66 68 7 -25 36 -46 70 -83 75
-83 6 0 14 -4 19 -9 5 -5 3 -6 -4 -2 -34 19 -77 75 886 -1144 310 -393 593
-751 629 -795 l64 -79 -67 -59 c-36 -33 -86 -84 -110 -113 l-43 -53 -398 306
c-1218 936 -1625 1244 -1636 1237 -6 -4 -8 -3 -4 4 4 6 -35 42 -94 87 -55 42
-100 74 -100 71 0 -2 41 -37 90 -76 50 -39 90 -74 90 -77 0 -4 -9 2 -20 12
-27 24 -41 10 -83 -81 -8 -17 -20 -35 -26 -38 -6 -4 -9 -12 -6 -17 4 -5 2 -9
-3 -9 -5 0 -12 -8 -16 -17 -5 -17 -12 -29 -48 -84 -10 -14 -15 -29 -11 -33 3
-3 1 -6 -5 -6 -7 0 -12 -5 -12 -10 0 -6 -16 -35 -35 -65 -19 -30 -33 -55 -30
-55 3 0 -15 -31 -40 -70 -25 -38 -42 -70 -38 -70 3 0 -1 -8 -9 -17 -8 -10 -26
-38 -39 -63 -13 -25 -28 -48 -34 -52 -5 -4 -6 -8 -1 -8 5 0 2 -8 -7 -18 -8 -9
-20 -28 -26 -42 -11 -25 -32 -61 -41 -70 -3 -3 -11 -15 -17 -27 -12 -20 -10
-24 15 -37 45 -25 22 -18 -87 24 -57 22 -106 39 -108 36 -2 -2 580 -237 1294
-522 714 -285 1299 -519 1301 -520 2 -1 -8 -40 -22 -85 -14 -46 -31 -114 -38
-152 l-13 -67 -30 5 c-51 9 -495 69 -1560 210 -561 74 -1057 140 -1103 147
-135 19 -103 3 41 -20 72 -12 105 -19 72 -17 -40 4 -55 2 -45 -4 12 -8 15 -88
18 -515 l5 -506 26 -1 c14 -1 -19 -9 -74 -19 -55 -9 -92 -18 -83 -19 20 -1
234 28 1645 229 579 83 1061 150 1072 150 16 0 22 -14 36 -77 10 -43 28 -109
42 -146 13 -38 23 -70 21 -72 -2 -1 -473 -192 -1048 -423 -1380 -555 -1551
-625 -1546 -629 2 -2 43 12 92 31 120 46 135 50 96 29 l-33 -19 25 -37 c14
-20 23 -37 20 -37 -4 0 5 -15 20 -34 14 -19 26 -39 26 -44 0 -5 9 -21 21 -36
11 -14 17 -26 12 -26 -4 0 -3 -4 2 -8 13 -9 31 -38 49 -78 8 -17 19 -35 25
-38 6 -4 9 -12 6 -17 -4 -5 -2 -9 3 -9 5 0 12 -8 16 -17 3 -10 11 -27 18 -38
28 -45 42 -70 39 -74 -1 -2 1 -7 6 -10 11 -8 30 -40 44 -71 6 -14 18 -33 26
-42 9 -10 12 -18 7 -18 -5 0 -4 -4 1 -8 13 -9 31 -38 49 -78 8 -17 19 -35 25
-38 6 -4 9 -12 6 -17 -4 -5 -2 -9 3 -9 5 0 12 -8 16 -17 3 -10 17 -36 30 -59
l25 -40 -75 -59 c-41 -32 -78 -63 -81 -69 -4 -5 39 25 95 68 56 43 100 82 97
86 -3 5 0 12 6 16 8 4 9 3 5 -4 -4 -7 -5 -12 -1 -12 3 0 182 136 398 302 350
270 1526 1178 1618 1249 l36 28 110 -109 111 -108 -415 -529 c-454 -577 -1300
-1659 -1317 -1683 -10 -15 40 40 89 97 22 26 22 26 128 -35 20 -12 52 -30 70
-41 17 -10 57 -33 87 -51 30 -18 70 -41 88 -51 17 -11 47 -27 65 -38 17 -10
57 -33 87 -51 54 -32 85 -50 154 -89 18 -11 64 -38 101 -60 37 -23 69 -41 72
-41 3 0 18 -10 35 -21 25 -18 32 -19 39 -8 18 29 7 -5 -36 -113 -25 -61 -43
-113 -41 -115 2 -2 38 81 81 184 147 353 545 1319 820 1988 108 264 198 481
199 483 2 1 46 -11 100 -28 53 -16 119 -32 146 -36 28 -4 50 -8 50 -9 0 -2
-20 -142 -45 -311 -77 -522 -121 -830 -235 -1623 -101 -702 -128 -910 -95
-741 7 36 13 56 15 45 1 -11 3 -15 6 -10 3 7 174 9 513 7 l509 -4 4 23 c2 13
10 -23 18 -81 8 -58 16 -98 18 -89 3 15 -59 512 -143 1144 -73 552 -215 1632
-215 1637 0 3 21 8 48 11 26 3 85 18 132 32 47 14 95 29 106 31 20 5 39 -39
257 -583 130 -323 351 -874 492 -1223 141 -349 275 -681 297 -738 23 -56 43
-100 45 -98 2 1 -13 45 -33 96 l-36 94 24 17 c12 10 34 24 48 31 14 7 48 26
75 42 28 16 75 42 105 59 30 17 67 38 82 49 14 10 29 18 32 18 3 0 29 14 58
31 29 18 78 45 108 62 30 17 67 38 82 49 14 10 29 18 32 18 3 0 29 14 58 32
29 17 78 45 108 62 105 59 97 51 76 75 -11 12 -17 21 -13 21 3 0 38 -41 77
-90 39 -50 74 -90 77 -90 2 0 -31 46 -75 103 -43 56 -199 260 -347 452 -148
193 -503 653 -788 1024 -473 613 -519 675 -502 687 29 21 97 87 151 146 l50
55 160 -125 c823 -650 1885 -1482 1890 -1482 4 0 0 8 -7 18 -13 15 -12 16 3 3
10 -7 16 -17 13 -21 -2 -4 12 -20 33 -36 20 -16 67 -53 105 -83 37 -29 67 -51
67 -48 0 3 -38 36 -85 73 l-84 68 31 56 c17 30 38 63 46 72 8 10 11 18 6 18
-5 0 -4 4 1 8 13 9 34 42 41 65 4 9 11 17 16 17 5 0 7 4 3 9 -3 5 -1 12 4 15
12 8 76 119 73 129 -1 4 2 7 7 7 5 0 11 8 15 18 7 22 28 55 41 64 6 4 7 8 3 8
-5 0 13 32 38 71 25 40 48 79 52 88 3 9 17 31 30 49 13 17 21 32 17 32 -4 0 4
15 19 34 14 19 26 37 26 41 0 3 11 23 25 43 30 45 31 59 4 67 -11 4 -18 9 -16
11 2 3 51 -14 107 -36 56 -22 104 -39 106 -37 5 4 -632 269 -2016 839 -294
121 -549 226 -567 233 l-31 13 28 84 c15 46 34 111 40 146 7 34 16 62 20 62 4
0 147 -20 316 -45 977 -144 1388 -204 1849 -271 248 -35 479 -69 515 -74 106
-16 113 -9 10 10 -52 10 -87 18 -78 19 10 0 15 7 13 14 -2 6 -1 238 3 514 7
497 7 502 -13 506 -11 1 27 9 85 17 58 8 98 16 89 18 -16 3 -187 -18 -1119
-139 -642 -83 -652 -84 -1040 -135 -575 -75 -625 -82 -631 -78 -3 2 -9 25 -12
51 -3 26 -18 89 -33 138 -15 50 -27 98 -28 108 -1 14 94 57 489 218 884 362
2070 851 2085 860 29 17 2 9 -86 -26 -99 -39 -106 -41 -79 -22 17 13 17 15 -1
48 -10 19 -21 36 -24 39 -10 10 -31 45 -36 63 -4 9 -10 17 -15 17 -5 0 -8 3
-7 8 3 9 -61 120 -73 128 -5 3 -7 10 -4 15 4 5 2 9 -3 9 -5 0 -12 8 -16 18 -7
22 -28 55 -41 64 -5 4 -7 8 -3 8 5 0 -12 32 -37 70 -25 39 -42 70 -39 70 3 0
-5 14 -17 32 -13 18 -31 46 -40 62 -33 62 -45 82 -67 114 -13 17 -20 32 -16
32 3 0 -5 15 -20 34 -14 19 -26 39 -26 45 0 17 -20 23 -35 11 -8 -7 -15 -10
-15 -7 0 4 43 41 95 83 52 42 95 78 95 81 0 4 -62 -43 -172 -130 -21 -17 -35
-33 -33 -38 3 -4 0 -11 -6 -15 -8 -4 -9 -3 -5 4 4 7 4 12 1 12 -3 0 -191 -145
-418 -322 -756 -591 -1521 -1191 -1567 -1228 l-45 -37 -110 112 -110 112 244
314 c638 822 1321 1709 1321 1714 0 3 -5 3 -12 -1 -7 -5 -8 -3 -4 5 5 7 11 10
14 7 7 -7 32 13 32 26 0 5 -6 6 -12 2 -9 -5 -8 -2 1 9 16 21 21 16 -54 57 -33
18 -93 52 -132 76 -40 24 -75 44 -79 44 -3 0 -18 8 -32 18 -15 11 -52 32 -82
49 -30 17 -79 44 -108 62 -29 17 -57 31 -62 31 -6 0 -10 3 -10 8 0 4 -10 12
-23 17 -31 15 -111 59 -117 65 -6 6 -86 50 -117 65 -13 5 -23 13 -23 18 0 4
-6 7 -14 7 -7 0 -19 6 -25 14 -9 11 -4 34 24 107 19 50 34 93 32 95 -2 2 -47
-106 -102 -239 -191 -470 -658 -1627 -811 -2006 -85 -212 -156 -386 -157 -388
-2 -1 -35 8 -74 22 -40 13 -104 31 -143 39 -40 8 -74 17 -76 19 -3 2 16 152
41 333 40 286 150 1081 245 1774 71 514 91 672 88 682 -2 6 -14 -47 -25 -118z
m932 -361 c-9 -15 -13 -19 -10 -8 4 11 10 29 13 40 3 11 7 14 9 8 3 -7 -3 -24
-12 -40z m-3854 -510 c13 -16 12 -17 -3 -4 -10 7 -18 15 -18 17 0 8 8 3 21
-13z m6202 -2590 c-7 -2 -19 -2 -25 0 -7 3 -2 5 12 5 14 0 19 -2 13 -5z m30
-1020 c-7 -2 -19 -2 -25 0 -7 3 -2 5 12 5 14 0 19 -2 13 -5z m-6220 -2527
c-10 -13 -20 -22 -22 -20 -4 4 29 44 36 44 2 0 -4 -11 -14 -24z m3856 -545 c0
-14 -1 -14 -6 -1 -3 8 -10 24 -15 35 -9 20 -9 20 6 1 9 -11 16 -27 15 -35z
m-992 -183 c-3 -8 -6 -5 -6 6 -1 11 2 17 5 13 3 -3 4 -12 1 -19z m-1020 -50
c-3 -7 -5 -2 -5 12 0 14 2 19 5 13 2 -7 2 -19 0 -25z"/>
<path d="M3760 9746 c0 -2 8 -10 18 -17 15 -13 16 -12 3 4 -13 16 -21 21 -21
13z"/>
<path d="M8949 9723 c-13 -16 -12 -17 4 -4 9 7 17 15 17 17 0 8 -8 3 -21 -13z"/>
<path d="M3800 9696 c0 -2 8 -10 18 -17 15 -13 16 -12 3 4 -13 16 -21 21 -21
13z"/>
<path d="M8858 9608 c-76 -96 -106 -138 -71 -103 26 26 155 195 150 195 -3 0
-38 -42 -79 -92z"/>
<path d="M3845 9640 c10 -11 20 -20 23 -20 3 0 -3 9 -13 20 -10 11 -20 20 -23
20 -3 0 3 -9 13 -20z"/>
<path d="M9709 9003 c-13 -16 -12 -17 4 -4 9 7 17 15 17 17 0 8 -8 3 -21 -13z"/>
<path d="M9664 8968 l-19 -23 23 19 c21 18 27 26 19 26 -2 0 -12 -10 -23 -22z"/>
<path d="M3110 8926 c0 -2 8 -10 18 -17 15 -13 16 -12 3 4 -13 16 -21 21 -21
13z"/>
<path d="M10180 7970 c-8 -5 -10 -10 -5 -10 6 0 17 5 25 10 8 5 11 10 5 10 -5
0 -17 -5 -25 -10z"/>
<path d="M2560 7940 c8 -5 20 -10 25 -10 6 0 3 5 -5 10 -8 5 -19 10 -25 10 -5
0 -3 -5 5 -10z"/>
<path d="M2288 6953 c6 -2 18 -2 25 0 6 3 1 5 -13 5 -14 0 -19 -2 -12 -5z"/>
<path d="M10558 6943 c6 -2 18 -2 25 0 6 3 1 5 -13 5 -14 0 -19 -2 -12 -5z"/>
<path d="M10478 6933 c6 -2 18 -2 25 0 6 3 1 5 -13 5 -14 0 -19 -2 -12 -5z"/>
<path d="M2323 5833 c9 -2 25 -2 35 0 9 3 1 5 -18 5 -19 0 -27 -2 -17 -5z"/>
<path d="M2268 5823 c7 -3 16 -2 19 1 4 3 -2 6 -13 5 -11 0 -14 -3 -6 -6z"/>
<path d="M10453 5813 c9 -2 23 -2 30 0 6 3 -1 5 -18 5 -16 0 -22 -2 -12 -5z"/>
<path d="M10528 5803 c7 -3 16 -2 19 1 4 3 -2 6 -13 5 -11 0 -14 -3 -6 -6z"/>
<path d="M2570 4860 c-8 -5 -10 -10 -5 -10 6 0 17 5 25 10 8 5 11 10 5 10 -5
0 -17 -5 -25 -10z"/>
<path d="M2520 4840 c-8 -5 -10 -10 -5 -10 6 0 17 5 25 10 8 5 11 10 5 10 -5
0 -17 -5 -25 -10z"/>
<path d="M3099 3863 c-13 -16 -12 -17 4 -4 16 13 21 21 13 21 -2 0 -10 -8 -17
-17z"/>
<path d="M9675 3830 c10 -11 20 -20 23 -20 3 0 -3 9 -13 20 -10 11 -20 20 -23
20 -3 0 3 -9 13 -20z"/>
<path d="M3049 3823 c-13 -16 -12 -17 4 -4 16 13 21 21 13 21 -2 0 -10 -8 -17
-17z"/>
<path d="M9710 3806 c0 -2 8 -10 18 -17 15 -13 16 -12 3 4 -13 16 -21 21 -21
13z"/>
<path d="M3834 3138 l-19 -23 23 19 c12 11 22 21 22 23 0 8 -8 2 -26 -19z"/>
<path d="M8900 3146 c0 -2 8 -10 18 -17 15 -13 16 -12 3 4 -13 16 -21 21 -21
13z"/>
<path d="M3799 3093 c-13 -16 -12 -17 4 -4 16 13 21 21 13 21 -2 0 -10 -8 -17
-17z"/>
<path d="M8930 3106 c0 -2 8 -10 18 -17 15 -13 16 -12 3 4 -13 16 -21 21 -21
13z"/>
<path d="M7940 2565 c0 -5 5 -17 10 -25 5 -8 10 -10 10 -5 0 6 -5 17 -10 25
-5 8 -10 11 -10 5z"/>
<path d="M5812 2385 c0 -16 2 -22 5 -12 2 9 2 23 0 30 -3 6 -5 -1 -5 -18z"/>
<path d="M5802 2325 c0 -16 2 -22 5 -12 2 9 2 23 0 30 -3 6 -5 -1 -5 -18z"/>
<path d="M6922 2325 c0 -16 2 -22 5 -12 2 9 2 23 0 30 -3 6 -5 -1 -5 -18z"/>
<path d="M6931 2264 c0 -11 3 -14 6 -6 3 7 2 16 -1 19 -3 4 -6 -2 -5 -13z"/>
<path d="M5791 2254 c0 -11 3 -14 6 -6 3 7 2 16 -1 19 -3 4 -6 -2 -5 -13z"/>
</g>
</svg>
